# xmcd CD database file
#
# Track frame offsets:
#	150
#	21527
#	45655
#
# Disc length: 893 seconds
#
# Revision: 0
# Processed by: cddbd v1.5.1PL0 Copyright (c) Steve Scherf et al.
# Submitted via: CDex 1.60beta1
#
DISCID=21037b03
DTITLE=杏子 - Happy Birthday
DYEAR=9704
DGENRE=JPop
TTITLE0=Happy Birthday
TTITLE1=HALNAIM
TTITLE2=Happy Birthday(Instrumental)
EXTD=YEAR: 970423
EXTT0=
EXTT1=
EXTT2=
PLAYORDER=
